<svg width="152" height="186" viewBox="0 0 152 186" fill="none" xmlns="http://www.w3.org/2000/svg">
<path d="M0 0H145.033V178.889H0V0Z" fill="#332C2B"/>
<path d="M6.55273 6.55273H151.586V185.442H6.55273V6.55273Z" fill="#FEFEFE"/>
<path fill-rule="evenodd" clip-rule="evenodd" d="M150.494 7.64485H7.64485V184.349H150.494V7.64485ZM6.55273 6.55273V185.442H151.586V6.55273H6.55273Z" fill="#8B8B8C"/>
<path d="M42.811 27.7397H71.8614V116.856H79.2878V27.7397H108.338V159.449H79.2878V143.067H71.8614V159.449H42.811V27.7397Z" fill="#332C2B"/>
<path d="M46.5242 30.1426H75.5745V119.259H83.0009V30.1426H112.051V161.852H83.0009V145.47H75.5745V161.852H46.5242V30.1426Z" fill="#2F318B"/>
<path d="M38.3335 117.512C38.3567 117.5 38.38 117.489 38.4034 117.478C41.3901 116.02 48.2531 111.491 59.739 109.648C71.3154 107.792 83.5471 107.683 98.6184 113.034C113.69 118.385 129.416 133.566 123.191 151.477C118.211 165.805 102.186 173.319 94.796 175.285C105.608 170.589 110.959 164.8 115.655 156.282C118.199 151.668 119.195 141.317 113.144 132.037C108.021 124.182 96.4087 117.187 85.1853 114.126C66.0192 108.899 46.5274 113.553 38.4034 117.478C38.3798 117.489 38.3566 117.501 38.3335 117.512Z" fill="#E62129"/>
</svg>
