<svg width="232" height="167" viewBox="0 0 232 167" fill="none" xmlns="http://www.w3.org/2000/svg">
<path d="M94.3632 158.778C94.5586 155.787 94.5803 151.896 94.5667 150.325H99.8996C99.8235 151.509 99.6601 154.081 99.5144 156.461H106.087C106.177 154.017 106.301 151.511 106.291 150.325H111.624C111.529 151.802 111.217 155.437 111.054 158.168C110.891 160.899 110.877 164.914 110.85 166.58H105.558C105.64 165.412 105.762 163.004 105.884 160.037H99.3169C99.2111 162.491 99.1475 165.266 99.1261 166.58H93.834C93.929 165.225 94.1678 161.768 94.3632 158.778Z" fill="white"/>
<path d="M214.74 158.778C214.935 155.787 214.957 151.896 214.943 150.325H220.276C220.2 151.509 220.037 154.081 219.891 156.461H226.464C226.553 154.017 226.678 151.511 226.667 150.325H232C231.905 151.802 231.593 155.437 231.43 158.168C231.267 160.899 231.254 164.914 231.227 166.58H225.935C226.016 165.412 226.138 163.004 226.26 160.037H219.693C219.588 162.491 219.524 165.266 219.503 166.58H214.21C214.305 165.225 214.544 161.768 214.74 158.778Z" fill="white"/>
<path d="M37.8185 159.184C37.9814 157.493 38.0492 152.574 38.0628 150.325H43.2328C43.0564 153.644 42.7036 160.679 42.7036 162.272C42.7036 164.263 42.0523 165.036 41.0345 165.726C40.0168 166.417 39.0805 166.905 36.6787 166.986C34.7572 167.051 32.35 166.553 31.3865 166.295L31.1016 162.272C31.2508 162.381 31.7936 162.662 32.7706 162.922C33.9919 163.248 35.7424 163.613 36.6787 162.719C37.615 161.825 37.615 161.297 37.8185 159.184Z" fill="white"/>
<path d="M6.71697 159.184C6.8798 157.493 6.94765 152.574 6.96122 150.325H12.1313C11.9548 153.644 11.602 160.679 11.602 162.272C11.602 164.263 10.9507 165.036 9.93297 165.726C8.91525 166.417 7.97894 166.905 5.57712 166.986C3.65566 167.051 1.24841 166.553 0.284962 166.295L0 162.272C0.149266 162.381 0.692051 162.662 1.66906 162.922C2.89033 163.248 4.64081 163.613 5.57712 162.719C6.51342 161.825 6.51342 161.297 6.71697 159.184Z" fill="white"/>
<path d="M16.08 160.891C16.2754 158.42 16.3514 152.818 16.365 150.325H29.7582L29.5954 153.861L21.4943 153.779L21.3101 156.624H28.1706L28.0077 160.2H21.0784L20.8837 163.207L29.1883 163.004L28.944 166.62H15.5508C15.6458 165.74 15.8846 163.361 16.08 160.891Z" fill="white"/>
<path fill-rule="evenodd" clip-rule="evenodd" d="M44.4946 166.62L53.1249 150.325H59.3127L65.2969 166.62H59.8826L58.475 162.028H52.1876L50.1125 166.62H44.4946ZM55.9338 153.739L57.4037 158.534H53.7669L55.9338 153.739Z" fill="white"/>
<path fill-rule="evenodd" clip-rule="evenodd" d="M112.845 166.62L121.476 150.325H127.663L133.647 166.62H128.233L126.826 162.028H120.538L118.463 166.62H112.845ZM124.284 153.739L125.754 158.534H122.117L124.284 153.739Z" fill="white"/>
<path fill-rule="evenodd" clip-rule="evenodd" d="M148.669 166.62L157.299 150.325H163.487L169.471 166.62H164.057L162.649 162.028H156.362L154.287 166.62H148.669ZM160.108 153.739L161.578 158.534H157.941L160.108 153.739Z" fill="white"/>
<path fill-rule="evenodd" clip-rule="evenodd" d="M191.006 166.62L199.637 150.325H205.824L211.809 166.62H206.394L204.987 162.028H198.699L196.624 166.62H191.006ZM202.446 153.739L203.915 158.534H200.279L202.446 153.739Z" fill="white"/>
<path d="M72.9909 166.58H67.6987L68.3908 158.696L68.5536 150.325H73.8458L72.9909 166.58Z" fill="white"/>
<path d="M73.6829 158.046L79.2194 150.325H85.0814L79.0972 158.046L84.9593 166.58H78.7716L73.6829 158.046Z" fill="white"/>
<path d="M142.481 150C144.044 150 146.091 150.325 146.919 150.488L147.203 154.389C146.946 154.307 146.292 154.096 145.738 153.901C145.046 153.657 143.865 153.495 143.092 153.576C142.318 153.657 141.464 154.104 141.464 154.836C141.464 155.567 141.911 156.055 142.807 156.746C143.703 157.436 144.11 157.68 145.331 158.737C146.552 159.793 147.163 160.891 147.203 162.028C147.244 163.166 147.081 164.182 145.901 165.361C144.72 166.539 143.173 166.864 140.771 166.986C138.85 167.084 136.741 166.647 135.927 166.417L135.52 162.353C135.642 162.421 136.147 162.638 137.189 162.963C138.492 163.369 139.143 163.491 140.242 163.369C141.341 163.247 142.033 163.126 142.074 162.191C142.115 161.256 140.161 159.793 138.41 158.29C136.66 156.786 136.212 155.933 136.253 154.714C136.293 153.495 136.619 152.398 137.678 151.422C138.736 150.447 140.527 150 142.481 150Z" fill="white"/>
<path d="M172.525 157.03C172.394 159.858 172.009 164.602 171.833 166.62H176.514L177.003 156.136C177.125 156.502 177.613 157.656 178.59 159.346C179.567 161.037 181.874 164.9 182.905 166.62H188.89C188.917 165.726 189.012 163.166 189.175 160.078C189.337 156.99 189.649 152.289 189.785 150.325H185.104L184.737 161.013L178.834 150.325H172.687C172.687 151.382 172.655 154.202 172.525 157.03Z" fill="white"/>
<path d="M63 7H157.72V125.654H63V7Z" fill="#332C2B"/>
<path d="M67.2798 11.3467H162V130H67.2798V11.3467Z" fill="#FEFEFE"/>
<path fill-rule="evenodd" clip-rule="evenodd" d="M161.287 12.0711H67.993V129.276H161.287V12.0711ZM67.2798 11.3467V130H162V11.3467H67.2798Z" fill="#8B8B8C"/>
<path d="M90.9595 25.3994H109.932V84.509H114.782V25.3994H133.755V112.76H114.782V101.894H109.932V112.76H90.9595V25.3994Z" fill="#332C2B"/>
<path d="M93.3848 26.9932H112.357V86.1027H117.208V26.9932H136.18V114.354H117.208V103.488H112.357V114.354H93.3848V26.9932Z" fill="#2F318B"/>
<path d="M88.0356 84.9431C88.0508 84.9356 88.066 84.9282 88.0813 84.9207C90.0319 83.954 94.5141 80.9494 102.015 79.7276C109.576 78.4961 117.564 78.4237 127.407 81.9732C137.25 85.5226 147.521 95.5915 143.456 107.471C140.203 116.975 129.737 121.959 124.911 123.263C131.972 120.148 135.467 116.309 138.534 110.659C140.195 107.599 140.846 100.733 136.894 94.5774C133.548 89.3675 125.964 84.7278 118.634 82.6976C106.117 79.2305 93.387 82.3175 88.0813 84.9207C88.0659 84.9283 88.0507 84.9358 88.0356 84.9431Z" fill="#E62129"/>
</svg>
